<mxfile host="app.diagrams.net" modified="2024-04-13T06:49:20.319Z" agent="Mozilla/5.0 (Windows NT 10.0; Win64; x64) AppleWebKit/537.36 (KHTML, like Gecko) Chrome/123.0.0.0 Safari/537.36" version="24.0.7" etag="U2rt_64attQbi4m4F2TZ" type="github">
  <diagram name="Page-1" id="PvqOqMHdHsa9tsUaIeSx">
    <mxGraphModel>
      <root>
        <mxCell id="0" />
        <mxCell id="1" parent="0" />
      </root>
    </mxGraphModel>
  </diagram>
</mxfile>
